<?xml version="1.0" encoding="UTF-8" ?>
<svg
  id="Layer_1"
  xmlns="http://www.w3.org/2000/svg"
  viewBox="0 0 478.78 498.38"
><defs><style
    >.cls-1{fill:#be281e;}.cls-2{fill:#d7e6f0;}.cls-3{fill:#f04b37;}.cls-4{fill:#323232;}.cls-5{fill:#f58721;}.cls-6{fill:#464646;}.cls-7{fill:#8caac8;}.cls-8{fill:#f0915a;}.cls-9{fill:#fab991;}.cls-10{fill:#ff6955;}.cls-11{fill:#58595b;}</style></defs><g
  ><path
      class="cls-5"
      d="M140.03,123.96c-1.72-3.12-5.95-3.72-8.47-1.2l-18.3,18.3-36.55-36.55c-3.32-3.32-8.68,.71-6.41,4.82l40.18,72.83c1.72,3.12,5.95,3.72,8.47,1.2l18.3-18.3,36.55,36.55c3.32,3.32,8.68-.71,6.41-4.82l-40.18-72.83Z"
    /><path
      class="cls-5"
      d="M402.97,98.1l-72.83,40.18c-3.12,1.72-3.72,5.95-1.2,8.47l18.3,18.3-36.55,36.55c-3.32,3.32,.71,8.68,4.82,6.41l72.83-40.18c3.12-1.72,3.72-5.95,1.2-8.47l-18.3-18.3,36.55-36.55c3.32-3.32-.71-8.68-4.82-6.41Z"
    /><path
      class="cls-5"
      d="M213.51,89.67h25.88v51.69c0,4.69,6.64,5.63,7.94,1.12l23.08-79.91c.99-3.42-1.58-6.83-5.14-6.83h-25.88V4.05c0-4.69-6.64-5.63-7.94-1.12l-23.08,79.91c-.99,3.42,1.58,6.83,5.14,6.83Z"
    /><rect
      class="cls-5"
      x="231.05"
      y="161.19"
      width="16.69"
      height="33.03"
      rx="8.34"
      ry="8.34"
    /><rect
      class="cls-5"
      x="231.05"
      y="210.33"
      width="16.69"
      height="33.03"
      rx="8.34"
      ry="8.34"
    /><path
      class="cls-5"
      d="M272.12,194.22h-16.34c-4.61,0-8.34,3.74-8.34,8.34s3.74,8.34,8.34,8.34h16.34c4.61,0,8.34-3.74,8.34-8.34s-3.74-8.34-8.34-8.34Z"
    /><path
      class="cls-5"
      d="M223,193.64h-16.34c-4.61,0-8.34,3.74-8.34,8.34s3.74,8.34,8.34,8.34h16.34c4.61,0,8.34-3.74,8.34-8.34s-3.74-8.34-8.34-8.34Z"
    /></g><g><g><path
        class="cls-6"
        d="M53.27,301.67l25.06-25.06c9.88-9.88,25.69-10.17,35.96-.92l-31.34,31.34c-1.61,1.61-1.61,4.23,0,5.84,1.61,1.61,4.23,1.61,5.84,0l31.39-31.39,9.37-9.37,2.92-2.92c11.89-11.89,31.17-11.89,43.06,0l64.96,64.96c11.89,11.89,11.89,31.17,0,43.06l-58.39,58.39c-10.71,10.71-19.56,11.28-34,11.5l-84.19-84.19-10.64-10.64c-13.97-13.97-13.97-36.63,0-50.61Z"
      /><rect
        class="cls-11"
        x="92.06"
        y="298.36"
        width="72.43"
        height="17.2"
        rx="6.38"
        ry="6.38"
        transform="translate(436.03 433.32) rotate(135)"
      /><path
        class="cls-4"
        d="M120.18,281.48l-31.39,31.39c-1.61,1.61-4.23,1.61-5.84,0-1.61-1.61-1.61-4.23,0-5.84l31.34-31.34c.34,.31,.69,.6,1.02,.92l4.87,4.87Z"
      /><path
        class="cls-4"
        d="M74.56,417.85l32.91,32.91c3.19,3.19,8.37,3.19,11.56,0s3.19-8.37,0-11.56l-32.91-32.91-26.58-26.58-18.8-18.8,10.58-10.58,96.77,96.77-28.09,28.09c-3.03,3.03-7.94,3.03-10.97,0l-.05-.05-45.86-45.86,11.44-11.44Z"
      /><path
        class="cls-6"
        d="M47.98,379.71c-3.19,3.19-3.19,8.37,0,11.56l26.58,26.58-11.44,11.44-39.89-39.89c-3.03-3.03-3.03-7.94,0-10.97l17.51-17.51,18.8,18.8c-3.19-3.19-8.37-3.19-11.56,0Z"
      /><path
        class="cls-7"
        d="M119.03,439.2c3.19,3.19,3.19,8.37,0,11.56s-8.37,3.19-11.56,0l-32.91-32.91,11.56-11.56,32.91,32.91Z"
      /><path
        class="cls-2"
        d="M47.98,379.71c3.19-3.19,8.37-3.19,11.56,0l26.58,26.58-11.56,11.56-26.58-26.58c-3.19-3.19-3.19-8.37,0-11.56Z"
      /><rect
        class="cls-8"
        x="58.01"
        y="431.4"
        width="32.86"
        height="64.86"
        transform="translate(-306.18 188.49) rotate(-45)"
      /><rect
        class="cls-9"
        x="15.13"
        y="392.75"
        width="32.86"
        height="56.42"
        transform="translate(-288.42 145.61) rotate(-45)"
      /></g><g><path
        class="cls-3"
        d="M425.51,301.67l-25.06-25.06c-9.88-9.88-25.69-10.17-35.96-.92l31.34,31.34c1.61,1.61,1.61,4.23,0,5.84-1.61,1.61-4.23,1.61-5.84,0l-31.39-31.39-9.37-9.37-2.92-2.92c-11.89-11.89-31.17-11.89-43.06,0l-64.96,64.96c-11.89,11.89-11.89,31.17,0,43.06l58.39,58.39c10.71,10.71,19.56,11.28,34,11.5l84.19-84.19,10.64-10.64c13.97-13.97,13.97-36.63,0-50.61Z"
      /><rect
        class="cls-10"
        x="314.29"
        y="298.36"
        width="72.43"
        height="17.2"
        rx="6.38"
        ry="6.38"
        transform="translate(319.72 -157.94) rotate(45)"
      /><path
        class="cls-1"
        d="M358.6,281.48l31.39,31.39c1.61,1.61,4.23,1.61,5.84,0,1.61-1.61,1.61-4.23,0-5.84l-31.34-31.34c-.34,.31-.69,.6-1.02,.92l-4.87,4.87Z"
      /><path
        class="cls-1"
        d="M404.22,417.85l-32.91,32.91c-3.19,3.19-8.37,3.19-11.56,0-3.19-3.19-3.19-8.37,0-11.56l32.91-32.91,26.58-26.58,18.8-18.8-10.58-10.58-96.77,96.77,28.09,28.09c3.03,3.03,7.94,3.03,10.97,0l.05-.05,45.86-45.86-11.44-11.44Z"
      /><path
        class="cls-3"
        d="M430.8,379.71c3.19,3.19,3.19,8.37,0,11.56l-26.58,26.58,11.44,11.44,39.89-39.89c3.03-3.03,3.03-7.94,0-10.97l-17.51-17.51-18.8,18.8c3.19-3.19,8.37-3.19,11.56,0Z"
      /><path
        class="cls-7"
        d="M359.75,439.2c-3.19,3.19-3.19,8.37,0,11.56,3.19,3.19,8.37,3.19,11.56,0l32.91-32.91-11.56-11.56-32.91,32.91Z"
      /><path
        class="cls-2"
        d="M430.8,379.71c-3.19-3.19-8.37-3.19-11.56,0l-26.58,26.58,11.56,11.56,26.58-26.58c3.19-3.19,3.19-8.37,0-11.56Z"
      /><rect
        class="cls-8"
        x="371.91"
        y="447.4"
        width="64.86"
        height="32.86"
        transform="translate(-209.55 421.76) rotate(-45)"
      /><rect
        class="cls-9"
        x="419.01"
        y="404.53"
        width="56.42"
        height="32.86"
        transform="translate(-166.67 439.53) rotate(-45)"
      /></g></g></svg>
